<svg width="1025" height="769" viewBox="0 0 1025 769" fill="none" xmlns="http://www.w3.org/2000/svg">
<g id="Construction details">
<rect width="1024" height="768" transform="translate(0.619843 0.799805)" fill="white"/>
<path id="Satisfiability2" d="M81.34 73.024C81.964 73.336 82.324 73.828 82.42 74.5C82.54 75.172 82.372 75.784 81.916 76.336C81.604 76.768 81.196 77.008 80.692 77.056C80.212 77.104 79.72 77.008 79.216 76.768C78.64 76.504 78.028 76.3 77.38 76.156C76.756 76.012 76.096 75.94 75.4 75.94C74.104 75.94 72.94 76.144 71.908 76.552C70.9 76.96 70.036 77.548 69.316 78.316C68.596 79.06 68.044 79.948 67.66 80.98C67.3 82.012 67.12 83.152 67.12 84.4C67.12 85.864 67.324 87.136 67.732 88.216C68.164 89.296 68.752 90.196 69.496 90.916C70.24 91.636 71.116 92.176 72.124 92.536C73.132 92.872 74.224 93.04 75.4 93.04C76.048 93.04 76.696 92.98 77.344 92.86C77.992 92.74 78.616 92.524 79.216 92.212C79.72 91.972 80.212 91.888 80.692 91.96C81.196 92.032 81.616 92.284 81.952 92.716C82.432 93.316 82.6 93.94 82.456 94.588C82.336 95.212 81.976 95.668 81.376 95.956C80.752 96.268 80.104 96.532 79.432 96.748C78.784 96.94 78.124 97.084 77.452 97.18C76.78 97.3 76.096 97.36 75.4 97.36C73.672 97.36 72.028 97.084 70.468 96.532C68.932 95.98 67.552 95.164 66.328 94.084C65.128 93.004 64.18 91.66 63.484 90.052C62.788 88.42 62.44 86.536 62.44 84.4C62.44 82.552 62.752 80.848 63.376 79.288C64.024 77.728 64.924 76.384 66.076 75.256C67.252 74.104 68.632 73.216 70.216 72.592C71.8 71.944 73.528 71.62 75.4 71.62C76.456 71.62 77.488 71.74 78.496 71.98C79.504 72.22 80.452 72.568 81.34 73.024ZM104.594 87.388C104.594 89.356 104.15 91.096 103.262 92.608C102.398 94.096 101.222 95.26 99.7343 96.1C98.2703 96.94 96.6263 97.36 94.8023 97.36C92.9783 97.36 91.3223 96.94 89.8343 96.1C88.3703 95.26 87.1943 94.096 86.3063 92.608C85.4423 91.096 85.0103 89.356 85.0103 87.388C85.0103 85.42 85.4423 83.692 86.3063 82.204C87.1943 80.692 88.3703 79.516 89.8343 78.676C91.3223 77.812 92.9783 77.38 94.8023 77.38C96.6263 77.38 98.2703 77.812 99.7343 78.676C101.222 79.516 102.398 80.692 103.262 82.204C104.15 83.692 104.594 85.42 104.594 87.388ZM100.274 87.388C100.274 86.164 100.022 85.108 99.5183 84.22C99.0383 83.308 98.3783 82.6 97.5383 82.096C96.7223 81.592 95.8103 81.34 94.8023 81.34C93.7943 81.34 92.8703 81.592 92.0303 82.096C91.2143 82.6 90.5543 83.308 90.0503 84.22C89.5703 85.108 89.3303 86.164 89.3303 87.388C89.3303 88.588 89.5703 89.644 90.0503 90.556C90.5543 91.444 91.2143 92.14 92.0303 92.644C92.8703 93.148 93.7943 93.4 94.8023 93.4C95.8103 93.4 96.7223 93.148 97.5383 92.644C98.3783 92.14 99.0383 91.444 99.5183 90.556C100.022 89.644 100.274 88.588 100.274 87.388ZM118.671 77.38C120.447 77.38 121.791 77.752 122.703 78.496C123.639 79.24 124.275 80.236 124.611 81.484C124.971 82.708 125.151 84.076 125.151 85.588V94.804C125.151 95.428 124.947 95.956 124.539 96.388C124.131 96.796 123.615 97 122.991 97C122.367 97 121.851 96.796 121.443 96.388C121.035 95.956 120.831 95.428 120.831 94.804V85.588C120.831 84.796 120.723 84.088 120.507 83.464C120.315 82.816 119.955 82.3 119.427 81.916C118.899 81.532 118.143 81.34 117.159 81.34C116.199 81.34 115.383 81.532 114.711 81.916C114.063 82.3 113.559 82.816 113.199 83.464C112.863 84.088 112.695 84.796 112.695 85.588V94.804C112.695 95.428 112.491 95.956 112.083 96.388C111.675 96.796 111.159 97 110.535 97C109.911 97 109.395 96.796 108.987 96.388C108.579 95.956 108.375 95.428 108.375 94.804V79.936C108.375 79.312 108.579 78.796 108.987 78.388C109.395 77.956 109.911 77.74 110.535 77.74C111.159 77.74 111.675 77.956 112.083 78.388C112.491 78.796 112.695 79.312 112.695 79.936V81.484L112.155 81.376C112.371 80.968 112.683 80.536 113.091 80.08C113.499 79.6 113.979 79.156 114.531 78.748C115.083 78.34 115.707 78.016 116.403 77.776C117.099 77.512 117.855 77.38 118.671 77.38ZM128.704 94.012C128.464 93.676 128.356 93.244 128.38 92.716C128.404 92.188 128.716 91.732 129.316 91.348C129.7 91.108 130.108 91.012 130.54 91.06C130.972 91.084 131.392 91.3 131.8 91.708C132.496 92.404 133.228 92.944 133.996 93.328C134.764 93.712 135.724 93.904 136.876 93.904C137.236 93.88 137.632 93.832 138.064 93.76C138.496 93.664 138.868 93.472 139.18 93.184C139.516 92.872 139.684 92.404 139.684 91.78C139.684 91.252 139.504 90.832 139.144 90.52C138.784 90.208 138.304 89.944 137.704 89.728C137.128 89.512 136.48 89.308 135.76 89.116C135.016 88.9 134.248 88.66 133.456 88.396C132.688 88.132 131.98 87.796 131.332 87.388C130.684 86.956 130.156 86.392 129.748 85.696C129.34 85 129.136 84.124 129.136 83.068C129.136 81.868 129.472 80.848 130.144 80.008C130.816 79.168 131.68 78.52 132.736 78.064C133.816 77.608 134.944 77.38 136.12 77.38C136.864 77.38 137.644 77.476 138.46 77.668C139.276 77.836 140.056 78.124 140.8 78.532C141.544 78.916 142.168 79.432 142.672 80.08C142.936 80.44 143.092 80.872 143.14 81.376C143.188 81.88 142.96 82.336 142.456 82.744C142.096 83.032 141.676 83.164 141.196 83.14C140.716 83.092 140.32 82.924 140.008 82.636C139.6 82.108 139.048 81.688 138.352 81.376C137.68 81.064 136.9 80.908 136.012 80.908C135.652 80.908 135.256 80.956 134.824 81.052C134.416 81.124 134.056 81.304 133.744 81.592C133.432 81.856 133.276 82.288 133.276 82.888C133.276 83.44 133.456 83.884 133.816 84.22C134.176 84.532 134.656 84.796 135.256 85.012C135.88 85.204 136.54 85.396 137.236 85.588C137.956 85.78 138.688 86.008 139.432 86.272C140.176 86.536 140.86 86.884 141.484 87.316C142.108 87.748 142.612 88.312 142.996 89.008C143.38 89.68 143.572 90.544 143.572 91.6C143.572 92.824 143.212 93.868 142.492 94.732C141.772 95.596 140.872 96.256 139.792 96.712C138.712 97.144 137.608 97.36 136.48 97.36C135.064 97.36 133.648 97.12 132.232 96.64C130.816 96.136 129.64 95.26 128.704 94.012ZM147.404 78.1H155.936C156.512 78.1 156.992 78.292 157.376 78.676C157.76 79.06 157.952 79.54 157.952 80.116C157.952 80.668 157.76 81.136 157.376 81.52C156.992 81.88 156.512 82.06 155.936 82.06H147.404C146.828 82.06 146.348 81.868 145.964 81.484C145.58 81.1 145.388 80.62 145.388 80.044C145.388 79.492 145.58 79.036 145.964 78.676C146.348 78.292 146.828 78.1 147.404 78.1ZM151.256 73.6C151.88 73.6 152.384 73.816 152.768 74.248C153.176 74.656 153.38 75.172 153.38 75.796V91.816C153.38 92.152 153.44 92.428 153.56 92.644C153.704 92.86 153.884 93.016 154.1 93.112C154.34 93.208 154.592 93.256 154.856 93.256C155.144 93.256 155.408 93.208 155.648 93.112C155.888 92.992 156.164 92.932 156.476 92.932C156.812 92.932 157.112 93.088 157.376 93.4C157.664 93.712 157.808 94.144 157.808 94.696C157.808 95.368 157.436 95.92 156.692 96.352C155.972 96.784 155.192 97 154.352 97C153.848 97 153.284 96.964 152.66 96.892C152.06 96.796 151.484 96.592 150.932 96.28C150.404 95.944 149.96 95.44 149.6 94.768C149.24 94.096 149.06 93.172 149.06 91.996V75.796C149.06 75.172 149.264 74.656 149.672 74.248C150.104 73.816 150.632 73.6 151.256 73.6ZM164.078 97C163.454 97 162.938 96.796 162.53 96.388C162.122 95.956 161.918 95.428 161.918 94.804V79.936C161.918 79.312 162.122 78.796 162.53 78.388C162.938 77.956 163.454 77.74 164.078 77.74C164.702 77.74 165.218 77.956 165.626 78.388C166.034 78.796 166.238 79.312 166.238 79.936V83.32L165.986 80.908C166.25 80.332 166.586 79.828 166.994 79.396C167.426 78.94 167.906 78.568 168.434 78.28C168.962 77.968 169.526 77.74 170.126 77.596C170.726 77.452 171.326 77.38 171.926 77.38C172.646 77.38 173.246 77.584 173.726 77.992C174.23 78.4 174.482 78.88 174.482 79.432C174.482 80.224 174.278 80.8 173.87 81.16C173.462 81.496 173.018 81.664 172.538 81.664C172.082 81.664 171.662 81.58 171.278 81.412C170.918 81.244 170.498 81.16 170.018 81.16C169.586 81.16 169.142 81.268 168.686 81.484C168.254 81.676 167.846 81.988 167.462 82.42C167.102 82.852 166.802 83.392 166.562 84.04C166.346 84.664 166.238 85.408 166.238 86.272V94.804C166.238 95.428 166.034 95.956 165.626 96.388C165.218 96.796 164.702 97 164.078 97ZM191.82 77.74C192.444 77.74 192.96 77.956 193.367 78.388C193.776 78.796 193.98 79.312 193.98 79.936V89.08C193.98 91.624 193.272 93.64 191.856 95.128C190.44 96.616 188.4 97.36 185.736 97.36C183.072 97.36 181.032 96.616 179.616 95.128C178.224 93.64 177.528 91.624 177.528 89.08V79.936C177.528 79.312 177.732 78.796 178.14 78.388C178.548 77.956 179.064 77.74 179.688 77.74C180.312 77.74 180.828 77.956 181.236 78.388C181.644 78.796 181.848 79.312 181.848 79.936V89.08C181.848 90.544 182.172 91.636 182.82 92.356C183.468 93.052 184.44 93.4 185.736 93.4C187.056 93.4 188.04 93.052 188.688 92.356C189.336 91.636 189.66 90.544 189.66 89.08V79.936C189.66 79.312 189.864 78.796 190.272 78.388C190.68 77.956 191.196 77.74 191.82 77.74ZM207.224 77.38C208.592 77.38 209.78 77.524 210.788 77.812C211.82 78.1 212.612 78.508 213.164 79.036C213.74 79.54 214.028 80.152 214.028 80.872C214.028 81.352 213.884 81.808 213.596 82.24C213.308 82.648 212.888 82.852 212.336 82.852C211.952 82.852 211.628 82.804 211.364 82.708C211.124 82.588 210.908 82.444 210.716 82.276C210.524 82.108 210.296 81.952 210.032 81.808C209.792 81.664 209.42 81.556 208.916 81.484C208.436 81.388 208.076 81.34 207.836 81.34C206.612 81.34 205.568 81.604 204.704 82.132C203.864 82.66 203.216 83.38 202.76 84.292C202.304 85.18 202.076 86.212 202.076 87.388C202.076 88.54 202.304 89.572 202.76 90.484C203.24 91.372 203.888 92.08 204.704 92.608C205.544 93.136 206.504 93.4 207.584 93.4C208.184 93.4 208.7 93.364 209.132 93.292C209.564 93.22 209.924 93.112 210.212 92.968C210.548 92.776 210.848 92.572 211.112 92.356C211.376 92.14 211.772 92.032 212.3 92.032C212.924 92.032 213.404 92.236 213.74 92.644C214.076 93.028 214.244 93.508 214.244 94.084C214.244 94.684 213.908 95.236 213.236 95.74C212.564 96.22 211.676 96.616 210.572 96.928C209.492 97.216 208.316 97.36 207.044 97.36C205.148 97.36 203.504 96.928 202.112 96.064C200.72 95.176 199.64 93.976 198.872 92.464C198.128 90.952 197.756 89.26 197.756 87.388C197.756 85.42 198.152 83.692 198.944 82.204C199.76 80.692 200.876 79.516 202.292 78.676C203.732 77.812 205.376 77.38 207.224 77.38ZM217.576 78.1H226.108C226.684 78.1 227.164 78.292 227.548 78.676C227.932 79.06 228.124 79.54 228.124 80.116C228.124 80.668 227.932 81.136 227.548 81.52C227.164 81.88 226.684 82.06 226.108 82.06H217.576C217 82.06 216.52 81.868 216.136 81.484C215.752 81.1 215.56 80.62 215.56 80.044C215.56 79.492 215.752 79.036 216.136 78.676C216.52 78.292 217 78.1 217.576 78.1ZM221.428 73.6C222.052 73.6 222.556 73.816 222.94 74.248C223.348 74.656 223.552 75.172 223.552 75.796V91.816C223.552 92.152 223.612 92.428 223.732 92.644C223.876 92.86 224.056 93.016 224.272 93.112C224.512 93.208 224.764 93.256 225.028 93.256C225.316 93.256 225.58 93.208 225.82 93.112C226.06 92.992 226.336 92.932 226.648 92.932C226.984 92.932 227.284 93.088 227.548 93.4C227.836 93.712 227.98 94.144 227.98 94.696C227.98 95.368 227.608 95.92 226.864 96.352C226.144 96.784 225.364 97 224.524 97C224.02 97 223.456 96.964 222.832 96.892C222.232 96.796 221.656 96.592 221.104 96.28C220.576 95.944 220.132 95.44 219.772 94.768C219.412 94.096 219.232 93.172 219.232 91.996V75.796C219.232 75.172 219.436 74.656 219.844 74.248C220.276 73.816 220.804 73.6 221.428 73.6ZM236.158 94.804C236.158 95.428 235.954 95.956 235.546 96.388C235.138 96.796 234.622 97 233.998 97C233.374 97 232.858 96.796 232.45 96.388C232.042 95.956 231.838 95.428 231.838 94.804V79.936C231.838 79.312 232.042 78.796 232.45 78.388C232.858 77.956 233.374 77.74 233.998 77.74C234.622 77.74 235.138 77.956 235.546 78.388C235.954 78.796 236.158 79.312 236.158 79.936V94.804ZM233.962 75.4C233.146 75.4 232.57 75.268 232.234 75.004C231.898 74.74 231.73 74.272 231.73 73.6V72.916C231.73 72.22 231.91 71.752 232.27 71.512C232.654 71.248 233.23 71.116 233.998 71.116C234.838 71.116 235.426 71.248 235.762 71.512C236.098 71.776 236.266 72.244 236.266 72.916V73.6C236.266 74.296 236.086 74.776 235.726 75.04C235.366 75.28 234.778 75.4 233.962 75.4ZM259.282 87.388C259.282 89.356 258.838 91.096 257.95 92.608C257.086 94.096 255.91 95.26 254.422 96.1C252.958 96.94 251.314 97.36 249.49 97.36C247.666 97.36 246.01 96.94 244.522 96.1C243.058 95.26 241.882 94.096 240.994 92.608C240.13 91.096 239.698 89.356 239.698 87.388C239.698 85.42 240.13 83.692 240.994 82.204C241.882 80.692 243.058 79.516 244.522 78.676C246.01 77.812 247.666 77.38 249.49 77.38C251.314 77.38 252.958 77.812 254.422 78.676C255.91 79.516 257.086 80.692 257.95 82.204C258.838 83.692 259.282 85.42 259.282 87.388ZM254.962 87.388C254.962 86.164 254.71 85.108 254.206 84.22C253.726 83.308 253.066 82.6 252.226 82.096C251.41 81.592 250.498 81.34 249.49 81.34C248.482 81.34 247.558 81.592 246.718 82.096C245.902 82.6 245.242 83.308 244.738 84.22C244.258 85.108 244.018 86.164 244.018 87.388C244.018 88.588 244.258 89.644 244.738 90.556C245.242 91.444 245.902 92.14 246.718 92.644C247.558 93.148 248.482 93.4 249.49 93.4C250.498 93.4 251.41 93.148 252.226 92.644C253.066 92.14 253.726 91.444 254.206 90.556C254.71 89.644 254.962 88.588 254.962 87.388ZM273.359 77.38C275.135 77.38 276.479 77.752 277.391 78.496C278.327 79.24 278.963 80.236 279.299 81.484C279.659 82.708 279.839 84.076 279.839 85.588V94.804C279.839 95.428 279.635 95.956 279.227 96.388C278.819 96.796 278.303 97 277.679 97C277.055 97 276.539 96.796 276.131 96.388C275.723 95.956 275.519 95.428 275.519 94.804V85.588C275.519 84.796 275.411 84.088 275.195 83.464C275.003 82.816 274.643 82.3 274.115 81.916C273.587 81.532 272.831 81.34 271.847 81.34C270.887 81.34 270.071 81.532 269.399 81.916C268.751 82.3 268.247 82.816 267.887 83.464C267.551 84.088 267.383 84.796 267.383 85.588V94.804C267.383 95.428 267.179 95.956 266.771 96.388C266.363 96.796 265.847 97 265.223 97C264.599 97 264.083 96.796 263.675 96.388C263.267 95.956 263.063 95.428 263.063 94.804V79.936C263.063 79.312 263.267 78.796 263.675 78.388C264.083 77.956 264.599 77.74 265.223 77.74C265.847 77.74 266.363 77.956 266.771 78.388C267.179 78.796 267.383 79.312 267.383 79.936V81.484L266.843 81.376C267.059 80.968 267.371 80.536 267.779 80.08C268.187 79.6 268.667 79.156 269.219 78.748C269.771 78.34 270.395 78.016 271.091 77.776C271.787 77.512 272.543 77.38 273.359 77.38Z" fill="black"/>
<path id="For_given_sentence2" d="M63.1797 166V163.598H65.582V166H63.1797ZM69.8594 166V163.598H72.2617V166H69.8594ZM76.5391 166V163.598H78.9414V166H76.5391ZM91.2461 166H89.2891V148.82H91.3984V154.949C92.2891 153.832 93.4258 153.273 94.8086 153.273C95.5742 153.273 96.2969 153.43 96.9766 153.742C97.6641 154.047 98.2266 154.48 98.6641 155.043C99.1094 155.598 99.457 156.27 99.707 157.059C99.957 157.848 100.082 158.691 100.082 159.59C100.082 161.723 99.5547 163.371 98.5 164.535C97.4453 165.699 96.1797 166.281 94.7031 166.281C93.2344 166.281 92.082 165.668 91.2461 164.441V166ZM91.2227 159.684C91.2227 161.176 91.4258 162.254 91.832 162.918C92.4961 164.004 93.3945 164.547 94.5273 164.547C95.4492 164.547 96.2461 164.148 96.918 163.352C97.5898 162.547 97.9258 161.352 97.9258 159.766C97.9258 158.141 97.6016 156.941 96.9531 156.168C96.3125 155.395 95.5352 155.008 94.6211 155.008C93.6992 155.008 92.9023 155.41 92.2305 156.215C91.5586 157.012 91.2227 158.168 91.2227 159.684ZM110.816 166V164.172C109.848 165.578 108.531 166.281 106.867 166.281C106.133 166.281 105.445 166.141 104.805 165.859C104.172 165.578 103.699 165.227 103.387 164.805C103.082 164.375 102.867 163.852 102.742 163.234C102.656 162.82 102.613 162.164 102.613 161.266V153.555H104.723V160.457C104.723 161.559 104.766 162.301 104.852 162.684C104.984 163.238 105.266 163.676 105.695 163.996C106.125 164.309 106.656 164.465 107.289 164.465C107.922 164.465 108.516 164.305 109.07 163.984C109.625 163.656 110.016 163.215 110.242 162.66C110.477 162.098 110.594 161.285 110.594 160.223V153.555H112.703V166H110.816ZM120.625 164.113L120.93 165.977C120.336 166.102 119.805 166.164 119.336 166.164C118.57 166.164 117.977 166.043 117.555 165.801C117.133 165.559 116.836 165.242 116.664 164.852C116.492 164.453 116.406 163.621 116.406 162.355V155.195H114.859V153.555H116.406V150.473L118.504 149.207V153.555H120.625V155.195H118.504V162.473C118.504 163.074 118.539 163.461 118.609 163.633C118.688 163.805 118.809 163.941 118.973 164.043C119.145 164.145 119.387 164.195 119.699 164.195C119.934 164.195 120.242 164.168 120.625 164.113ZM131.676 166L127.867 153.555H130.047L132.027 160.738L132.766 163.41C132.797 163.277 133.012 162.422 133.41 160.844L135.391 153.555H137.559L139.422 160.773L140.043 163.152L140.758 160.75L142.891 153.555H144.941L141.051 166H138.859L136.879 158.547L136.398 156.426L133.879 166H131.676ZM155.242 161.992L157.422 162.262C157.078 163.535 156.441 164.523 155.512 165.227C154.582 165.93 153.395 166.281 151.949 166.281C150.129 166.281 148.684 165.723 147.613 164.605C146.551 163.48 146.02 161.906 146.02 159.883C146.02 157.789 146.559 156.164 147.637 155.008C148.715 153.852 150.113 153.273 151.832 153.273C153.496 153.273 154.855 153.84 155.91 154.973C156.965 156.105 157.492 157.699 157.492 159.754C157.492 159.879 157.488 160.066 157.48 160.316H148.199C148.277 161.684 148.664 162.73 149.359 163.457C150.055 164.184 150.922 164.547 151.961 164.547C152.734 164.547 153.395 164.344 153.941 163.938C154.488 163.531 154.922 162.883 155.242 161.992ZM148.316 158.582H155.266C155.172 157.535 154.906 156.75 154.469 156.227C153.797 155.414 152.926 155.008 151.855 155.008C150.887 155.008 150.07 155.332 149.406 155.98C148.75 156.629 148.387 157.496 148.316 158.582ZM174.883 164.465C174.102 165.129 173.348 165.598 172.621 165.871C171.902 166.145 171.129 166.281 170.301 166.281C168.934 166.281 167.883 165.949 167.148 165.285C166.414 164.613 166.047 163.758 166.047 162.719C166.047 162.109 166.184 161.555 166.457 161.055C166.738 160.547 167.102 160.141 167.547 159.836C168 159.531 168.508 159.301 169.07 159.145C169.484 159.035 170.109 158.93 170.945 158.828C172.648 158.625 173.902 158.383 174.707 158.102C174.715 157.812 174.719 157.629 174.719 157.551C174.719 156.691 174.52 156.086 174.121 155.734C173.582 155.258 172.781 155.02 171.719 155.02C170.727 155.02 169.992 155.195 169.516 155.547C169.047 155.891 168.699 156.504 168.473 157.387L166.41 157.105C166.598 156.223 166.906 155.512 167.336 154.973C167.766 154.426 168.387 154.008 169.199 153.719C170.012 153.422 170.953 153.273 172.023 153.273C173.086 153.273 173.949 153.398 174.613 153.648C175.277 153.898 175.766 154.215 176.078 154.598C176.391 154.973 176.609 155.449 176.734 156.027C176.805 156.387 176.84 157.035 176.84 157.973V160.785C176.84 162.746 176.883 163.988 176.969 164.512C177.062 165.027 177.242 165.523 177.508 166H175.305C175.086 165.562 174.945 165.051 174.883 164.465ZM174.707 159.754C173.941 160.066 172.793 160.332 171.262 160.551C170.395 160.676 169.781 160.816 169.422 160.973C169.062 161.129 168.785 161.359 168.59 161.664C168.395 161.961 168.297 162.293 168.297 162.66C168.297 163.223 168.508 163.691 168.93 164.066C169.359 164.441 169.984 164.629 170.805 164.629C171.617 164.629 172.34 164.453 172.973 164.102C173.605 163.742 174.07 163.254 174.367 162.637C174.594 162.16 174.707 161.457 174.707 160.527V159.754ZM180.074 166V148.82H182.184V166H180.074ZM184.621 162.285L186.707 161.957C186.824 162.793 187.148 163.434 187.68 163.879C188.219 164.324 188.969 164.547 189.93 164.547C190.898 164.547 191.617 164.352 192.086 163.961C192.555 163.562 192.789 163.098 192.789 162.566C192.789 162.09 192.582 161.715 192.168 161.441C191.879 161.254 191.16 161.016 190.012 160.727C188.465 160.336 187.391 160 186.789 159.719C186.195 159.43 185.742 159.035 185.43 158.535C185.125 158.027 184.973 157.469 184.973 156.859C184.973 156.305 185.098 155.793 185.348 155.324C185.605 154.848 185.953 154.453 186.391 154.141C186.719 153.898 187.164 153.695 187.727 153.531C188.297 153.359 188.906 153.273 189.555 153.273C190.531 153.273 191.387 153.414 192.121 153.695C192.863 153.977 193.41 154.359 193.762 154.844C194.113 155.32 194.355 155.961 194.488 156.766L192.426 157.047C192.332 156.406 192.059 155.906 191.605 155.547C191.16 155.188 190.527 155.008 189.707 155.008C188.738 155.008 188.047 155.168 187.633 155.488C187.219 155.809 187.012 156.184 187.012 156.613C187.012 156.887 187.098 157.133 187.27 157.352C187.441 157.578 187.711 157.766 188.078 157.914C188.289 157.992 188.91 158.172 189.941 158.453C191.434 158.852 192.473 159.18 193.059 159.438C193.652 159.688 194.117 160.055 194.453 160.539C194.789 161.023 194.957 161.625 194.957 162.344C194.957 163.047 194.75 163.711 194.336 164.336C193.93 164.953 193.34 165.434 192.566 165.777C191.793 166.113 190.918 166.281 189.941 166.281C188.324 166.281 187.09 165.945 186.238 165.273C185.395 164.602 184.855 163.605 184.621 162.285ZM196.68 159.777C196.68 157.473 197.32 155.766 198.602 154.656C199.672 153.734 200.977 153.273 202.516 153.273C204.227 153.273 205.625 153.836 206.711 154.961C207.797 156.078 208.34 157.625 208.34 159.602C208.34 161.203 208.098 162.465 207.613 163.387C207.137 164.301 206.438 165.012 205.516 165.52C204.602 166.027 203.602 166.281 202.516 166.281C200.773 166.281 199.363 165.723 198.285 164.605C197.215 163.488 196.68 161.879 196.68 159.777ZM198.848 159.777C198.848 161.371 199.195 162.566 199.891 163.363C200.586 164.152 201.461 164.547 202.516 164.547C203.562 164.547 204.434 164.148 205.129 163.352C205.824 162.555 206.172 161.34 206.172 159.707C206.172 158.168 205.82 157.004 205.117 156.215C204.422 155.418 203.555 155.02 202.516 155.02C201.461 155.02 200.586 155.414 199.891 156.203C199.195 156.992 198.848 158.184 198.848 159.777ZM217.504 166V153.555H219.402V155.324C220.316 153.957 221.637 153.273 223.363 153.273C224.113 153.273 224.801 153.41 225.426 153.684C226.059 153.949 226.531 154.301 226.844 154.738C227.156 155.176 227.375 155.695 227.5 156.297C227.578 156.688 227.617 157.371 227.617 158.348V166H225.508V158.43C225.508 157.57 225.426 156.93 225.262 156.508C225.098 156.078 224.805 155.738 224.383 155.488C223.969 155.23 223.48 155.102 222.918 155.102C222.02 155.102 221.242 155.387 220.586 155.957C219.938 156.527 219.613 157.609 219.613 159.203V166H217.504ZM239.383 161.992L241.562 162.262C241.219 163.535 240.582 164.523 239.652 165.227C238.723 165.93 237.535 166.281 236.09 166.281C234.27 166.281 232.824 165.723 231.754 164.605C230.691 163.48 230.16 161.906 230.16 159.883C230.16 157.789 230.699 156.164 231.777 155.008C232.855 153.852 234.254 153.273 235.973 153.273C237.637 153.273 238.996 153.84 240.051 154.973C241.105 156.105 241.633 157.699 241.633 159.754C241.633 159.879 241.629 160.066 241.621 160.316H232.34C232.418 161.684 232.805 162.73 233.5 163.457C234.195 164.184 235.062 164.547 236.102 164.547C236.875 164.547 237.535 164.344 238.082 163.938C238.629 163.531 239.062 162.883 239.383 161.992ZM232.457 158.582H239.406C239.312 157.535 239.047 156.75 238.609 156.227C237.938 155.414 237.066 155.008 235.996 155.008C235.027 155.008 234.211 155.332 233.547 155.98C232.891 156.629 232.527 157.496 232.457 158.582ZM252.742 161.992L254.922 162.262C254.578 163.535 253.941 164.523 253.012 165.227C252.082 165.93 250.895 166.281 249.449 166.281C247.629 166.281 246.184 165.723 245.113 164.605C244.051 163.48 243.52 161.906 243.52 159.883C243.52 157.789 244.059 156.164 245.137 155.008C246.215 153.852 247.613 153.273 249.332 153.273C250.996 153.273 252.355 153.84 253.41 154.973C254.465 156.105 254.992 157.699 254.992 159.754C254.992 159.879 254.988 160.066 254.98 160.316H245.699C245.777 161.684 246.164 162.73 246.859 163.457C247.555 164.184 248.422 164.547 249.461 164.547C250.234 164.547 250.895 164.344 251.441 163.938C251.988 163.531 252.422 162.883 252.742 161.992ZM245.816 158.582H252.766C252.672 157.535 252.406 156.75 251.969 156.227C251.297 155.414 250.426 155.008 249.355 155.008C248.387 155.008 247.57 155.332 246.906 155.98C246.25 156.629 245.887 157.496 245.816 158.582ZM265.656 166V164.43C264.867 165.664 263.707 166.281 262.176 166.281C261.184 166.281 260.27 166.008 259.434 165.461C258.605 164.914 257.961 164.152 257.5 163.176C257.047 162.191 256.82 161.062 256.82 159.789C256.82 158.547 257.027 157.422 257.441 156.414C257.855 155.398 258.477 154.621 259.305 154.082C260.133 153.543 261.059 153.273 262.082 153.273C262.832 153.273 263.5 153.434 264.086 153.754C264.672 154.066 265.148 154.477 265.516 154.984V148.82H267.613V166H265.656ZM258.988 159.789C258.988 161.383 259.324 162.574 259.996 163.363C260.668 164.152 261.461 164.547 262.375 164.547C263.297 164.547 264.078 164.172 264.719 163.422C265.367 162.664 265.691 161.512 265.691 159.965C265.691 158.262 265.363 157.012 264.707 156.215C264.051 155.418 263.242 155.02 262.281 155.02C261.344 155.02 260.559 155.402 259.926 156.168C259.301 156.934 258.988 158.141 258.988 159.789ZM282.227 164.113L282.531 165.977C281.938 166.102 281.406 166.164 280.938 166.164C280.172 166.164 279.578 166.043 279.156 165.801C278.734 165.559 278.438 165.242 278.266 164.852C278.094 164.453 278.008 163.621 278.008 162.355V155.195H276.461V153.555H278.008V150.473L280.105 149.207V153.555H282.227V155.195H280.105V162.473C280.105 163.074 280.141 163.461 280.211 163.633C280.289 163.805 280.41 163.941 280.574 164.043C280.746 164.145 280.988 164.195 281.301 164.195C281.535 164.195 281.844 164.168 282.227 164.113ZM283.516 159.777C283.516 157.473 284.156 155.766 285.438 154.656C286.508 153.734 287.812 153.273 289.352 153.273C291.062 153.273 292.461 153.836 293.547 154.961C294.633 156.078 295.176 157.625 295.176 159.602C295.176 161.203 294.934 162.465 294.449 163.387C293.973 164.301 293.273 165.012 292.352 165.52C291.438 166.027 290.438 166.281 289.352 166.281C287.609 166.281 286.199 165.723 285.121 164.605C284.051 163.488 283.516 161.879 283.516 159.777ZM285.684 159.777C285.684 161.371 286.031 162.566 286.727 163.363C287.422 164.152 288.297 164.547 289.352 164.547C290.398 164.547 291.27 164.148 291.965 163.352C292.66 162.555 293.008 161.34 293.008 159.707C293.008 158.168 292.656 157.004 291.953 156.215C291.258 155.418 290.391 155.02 289.352 155.02C288.297 155.02 287.422 155.414 286.727 156.203C286.031 156.992 285.684 158.184 285.684 159.777ZM303.496 162.285L305.582 161.957C305.699 162.793 306.023 163.434 306.555 163.879C307.094 164.324 307.844 164.547 308.805 164.547C309.773 164.547 310.492 164.352 310.961 163.961C311.43 163.562 311.664 163.098 311.664 162.566C311.664 162.09 311.457 161.715 311.043 161.441C310.754 161.254 310.035 161.016 308.887 160.727C307.34 160.336 306.266 160 305.664 159.719C305.07 159.43 304.617 159.035 304.305 158.535C304 158.027 303.848 157.469 303.848 156.859C303.848 156.305 303.973 155.793 304.223 155.324C304.48 154.848 304.828 154.453 305.266 154.141C305.594 153.898 306.039 153.695 306.602 153.531C307.172 153.359 307.781 153.273 308.43 153.273C309.406 153.273 310.262 153.414 310.996 153.695C311.738 153.977 312.285 154.359 312.637 154.844C312.988 155.32 313.23 155.961 313.363 156.766L311.301 157.047C311.207 156.406 310.934 155.906 310.48 155.547C310.035 155.188 309.402 155.008 308.582 155.008C307.613 155.008 306.922 155.168 306.508 155.488C306.094 155.809 305.887 156.184 305.887 156.613C305.887 156.887 305.973 157.133 306.145 157.352C306.316 157.578 306.586 157.766 306.953 157.914C307.164 157.992 307.785 158.172 308.816 158.453C310.309 158.852 311.348 159.18 311.934 159.438C312.527 159.688 312.992 160.055 313.328 160.539C313.664 161.023 313.832 161.625 313.832 162.344C313.832 163.047 313.625 163.711 313.211 164.336C312.805 164.953 312.215 165.434 311.441 165.777C310.668 166.113 309.793 166.281 308.816 166.281C307.199 166.281 305.965 165.945 305.113 165.273C304.27 164.602 303.73 163.605 303.496 162.285ZM316.34 166V148.82H318.449V154.984C319.434 153.844 320.676 153.273 322.176 153.273C323.098 153.273 323.898 153.457 324.578 153.824C325.258 154.184 325.742 154.684 326.031 155.324C326.328 155.965 326.477 156.895 326.477 158.113V166H324.367V158.113C324.367 157.059 324.137 156.293 323.676 155.816C323.223 155.332 322.578 155.09 321.742 155.09C321.117 155.09 320.527 155.254 319.973 155.582C319.426 155.902 319.035 156.34 318.801 156.895C318.566 157.449 318.449 158.215 318.449 159.191V166H316.34ZM328.914 159.777C328.914 157.473 329.555 155.766 330.836 154.656C331.906 153.734 333.211 153.273 334.75 153.273C336.461 153.273 337.859 153.836 338.945 154.961C340.031 156.078 340.574 157.625 340.574 159.602C340.574 161.203 340.332 162.465 339.848 163.387C339.371 164.301 338.672 165.012 337.75 165.52C336.836 166.027 335.836 166.281 334.75 166.281C333.008 166.281 331.598 165.723 330.52 164.605C329.449 163.488 328.914 161.879 328.914 159.777ZM331.082 159.777C331.082 161.371 331.43 162.566 332.125 163.363C332.82 164.152 333.695 164.547 334.75 164.547C335.797 164.547 336.668 164.148 337.363 163.352C338.059 162.555 338.406 161.34 338.406 159.707C338.406 158.168 338.055 157.004 337.352 156.215C336.656 155.418 335.789 155.02 334.75 155.02C333.695 155.02 332.82 155.414 332.125 156.203C331.43 156.992 331.082 158.184 331.082 159.777ZM345.355 166L341.547 153.555H343.727L345.707 160.738L346.445 163.41C346.477 163.277 346.691 162.422 347.09 160.844L349.07 153.555H351.238L353.102 160.773L353.723 163.152L354.438 160.75L356.57 153.555H358.621L354.73 166H352.539L350.559 158.547L350.078 156.426L347.559 166H345.355ZM371.688 164.113L371.992 165.977C371.398 166.102 370.867 166.164 370.398 166.164C369.633 166.164 369.039 166.043 368.617 165.801C368.195 165.559 367.898 165.242 367.727 164.852C367.555 164.453 367.469 163.621 367.469 162.355V155.195H365.922V153.555H367.469V150.473L369.566 149.207V153.555H371.688V155.195H369.566V162.473C369.566 163.074 369.602 163.461 369.672 163.633C369.75 163.805 369.871 163.941 370.035 164.043C370.207 164.145 370.449 164.195 370.762 164.195C370.996 164.195 371.305 164.168 371.688 164.113ZM373.762 166V148.82H375.871V154.984C376.855 153.844 378.098 153.273 379.598 153.273C380.52 153.273 381.32 153.457 382 153.824C382.68 154.184 383.164 154.684 383.453 155.324C383.75 155.965 383.898 156.895 383.898 158.113V166H381.789V158.113C381.789 157.059 381.559 156.293 381.098 155.816C380.645 155.332 380 155.09 379.164 155.09C378.539 155.09 377.949 155.254 377.395 155.582C376.848 155.902 376.457 156.34 376.223 156.895C375.988 157.449 375.871 158.215 375.871 159.191V166H373.762ZM395.242 164.465C394.461 165.129 393.707 165.598 392.98 165.871C392.262 166.145 391.488 166.281 390.66 166.281C389.293 166.281 388.242 165.949 387.508 165.285C386.773 164.613 386.406 163.758 386.406 162.719C386.406 162.109 386.543 161.555 386.816 161.055C387.098 160.547 387.461 160.141 387.906 159.836C388.359 159.531 388.867 159.301 389.43 159.145C389.844 159.035 390.469 158.93 391.305 158.828C393.008 158.625 394.262 158.383 395.066 158.102C395.074 157.812 395.078 157.629 395.078 157.551C395.078 156.691 394.879 156.086 394.48 155.734C393.941 155.258 393.141 155.02 392.078 155.02C391.086 155.02 390.352 155.195 389.875 155.547C389.406 155.891 389.059 156.504 388.832 157.387L386.77 157.105C386.957 156.223 387.266 155.512 387.695 154.973C388.125 154.426 388.746 154.008 389.559 153.719C390.371 153.422 391.312 153.273 392.383 153.273C393.445 153.273 394.309 153.398 394.973 153.648C395.637 153.898 396.125 154.215 396.438 154.598C396.75 154.973 396.969 155.449 397.094 156.027C397.164 156.387 397.199 157.035 397.199 157.973V160.785C397.199 162.746 397.242 163.988 397.328 164.512C397.422 165.027 397.602 165.523 397.867 166H395.664C395.445 165.562 395.305 165.051 395.242 164.465ZM395.066 159.754C394.301 160.066 393.152 160.332 391.621 160.551C390.754 160.676 390.141 160.816 389.781 160.973C389.422 161.129 389.145 161.359 388.949 161.664C388.754 161.961 388.656 162.293 388.656 162.66C388.656 163.223 388.867 163.691 389.289 164.066C389.719 164.441 390.344 164.629 391.164 164.629C391.977 164.629 392.699 164.453 393.332 164.102C393.965 163.742 394.43 163.254 394.727 162.637C394.953 162.16 395.066 161.457 395.066 160.527V159.754ZM405.086 164.113L405.391 165.977C404.797 166.102 404.266 166.164 403.797 166.164C403.031 166.164 402.438 166.043 402.016 165.801C401.594 165.559 401.297 165.242 401.125 164.852C400.953 164.453 400.867 163.621 400.867 162.355V155.195H399.32V153.555H400.867V150.473L402.965 149.207V153.555H405.086V155.195H402.965V162.473C402.965 163.074 403 163.461 403.07 163.633C403.148 163.805 403.27 163.941 403.434 164.043C403.605 164.145 403.848 164.195 404.16 164.195C404.395 164.195 404.703 164.168 405.086 164.113ZM412.996 162.285L415.082 161.957C415.199 162.793 415.523 163.434 416.055 163.879C416.594 164.324 417.344 164.547 418.305 164.547C419.273 164.547 419.992 164.352 420.461 163.961C420.93 163.562 421.164 163.098 421.164 162.566C421.164 162.09 420.957 161.715 420.543 161.441C420.254 161.254 419.535 161.016 418.387 160.727C416.84 160.336 415.766 160 415.164 159.719C414.57 159.43 414.117 159.035 413.805 158.535C413.5 158.027 413.348 157.469 413.348 156.859C413.348 156.305 413.473 155.793 413.723 155.324C413.98 154.848 414.328 154.453 414.766 154.141C415.094 153.898 415.539 153.695 416.102 153.531C416.672 153.359 417.281 153.273 417.93 153.273C418.906 153.273 419.762 153.414 420.496 153.695C421.238 153.977 421.785 154.359 422.137 154.844C422.488 155.32 422.73 155.961 422.863 156.766L420.801 157.047C420.707 156.406 420.434 155.906 419.98 155.547C419.535 155.188 418.902 155.008 418.082 155.008C417.113 155.008 416.422 155.168 416.008 155.488C415.594 155.809 415.387 156.184 415.387 156.613C415.387 156.887 415.473 157.133 415.645 157.352C415.816 157.578 416.086 157.766 416.453 157.914C416.664 157.992 417.285 158.172 418.316 158.453C419.809 158.852 420.848 159.18 421.434 159.438C422.027 159.688 422.492 160.055 422.828 160.539C423.164 161.023 423.332 161.625 423.332 162.344C423.332 163.047 423.125 163.711 422.711 164.336C422.305 164.953 421.715 165.434 420.941 165.777C420.168 166.113 419.293 166.281 418.316 166.281C416.699 166.281 415.465 165.945 414.613 165.273C413.77 164.602 413.23 163.605 412.996 162.285ZM433.996 166V164.172C433.027 165.578 431.711 166.281 430.047 166.281C429.312 166.281 428.625 166.141 427.984 165.859C427.352 165.578 426.879 165.227 426.566 164.805C426.262 164.375 426.047 163.852 425.922 163.234C425.836 162.82 425.793 162.164 425.793 161.266V153.555H427.902V160.457C427.902 161.559 427.945 162.301 428.031 162.684C428.164 163.238 428.445 163.676 428.875 163.996C429.305 164.309 429.836 164.465 430.469 164.465C431.102 164.465 431.695 164.305 432.25 163.984C432.805 163.656 433.195 163.215 433.422 162.66C433.656 162.098 433.773 161.285 433.773 160.223V153.555H435.883V166H433.996ZM447.32 161.441L449.395 161.711C449.168 163.141 448.586 164.262 447.648 165.074C446.719 165.879 445.574 166.281 444.215 166.281C442.512 166.281 441.141 165.727 440.102 164.617C439.07 163.5 438.555 161.902 438.555 159.824C438.555 158.48 438.777 157.305 439.223 156.297C439.668 155.289 440.344 154.535 441.25 154.035C442.164 153.527 443.156 153.273 444.227 153.273C445.578 153.273 446.684 153.617 447.543 154.305C448.402 154.984 448.953 155.953 449.195 157.211L447.145 157.527C446.949 156.691 446.602 156.062 446.102 155.641C445.609 155.219 445.012 155.008 444.309 155.008C443.246 155.008 442.383 155.391 441.719 156.156C441.055 156.914 440.723 158.117 440.723 159.766C440.723 161.438 441.043 162.652 441.684 163.41C442.324 164.168 443.16 164.547 444.191 164.547C445.02 164.547 445.711 164.293 446.266 163.785C446.82 163.277 447.172 162.496 447.32 161.441ZM451.199 166V148.82H453.309V154.984C454.293 153.844 455.535 153.273 457.035 153.273C457.957 153.273 458.758 153.457 459.438 153.824C460.117 154.184 460.602 154.684 460.891 155.324C461.188 155.965 461.336 156.895 461.336 158.113V166H459.227V158.113C459.227 157.059 458.996 156.293 458.535 155.816C458.082 155.332 457.438 155.09 456.602 155.09C455.977 155.09 455.387 155.254 454.832 155.582C454.285 155.902 453.895 156.34 453.66 156.895C453.426 157.449 453.309 158.215 453.309 159.191V166H451.199ZM479.359 164.465C478.578 165.129 477.824 165.598 477.098 165.871C476.379 166.145 475.605 166.281 474.777 166.281C473.41 166.281 472.359 165.949 471.625 165.285C470.891 164.613 470.523 163.758 470.523 162.719C470.523 162.109 470.66 161.555 470.934 161.055C471.215 160.547 471.578 160.141 472.023 159.836C472.477 159.531 472.984 159.301 473.547 159.145C473.961 159.035 474.586 158.93 475.422 158.828C477.125 158.625 478.379 158.383 479.184 158.102C479.191 157.812 479.195 157.629 479.195 157.551C479.195 156.691 478.996 156.086 478.598 155.734C478.059 155.258 477.258 155.02 476.195 155.02C475.203 155.02 474.469 155.195 473.992 155.547C473.523 155.891 473.176 156.504 472.949 157.387L470.887 157.105C471.074 156.223 471.383 155.512 471.812 154.973C472.242 154.426 472.863 154.008 473.676 153.719C474.488 153.422 475.43 153.273 476.5 153.273C477.562 153.273 478.426 153.398 479.09 153.648C479.754 153.898 480.242 154.215 480.555 154.598C480.867 154.973 481.086 155.449 481.211 156.027C481.281 156.387 481.316 157.035 481.316 157.973V160.785C481.316 162.746 481.359 163.988 481.445 164.512C481.539 165.027 481.719 165.523 481.984 166H479.781C479.562 165.562 479.422 165.051 479.359 164.465ZM479.184 159.754C478.418 160.066 477.27 160.332 475.738 160.551C474.871 160.676 474.258 160.816 473.898 160.973C473.539 161.129 473.262 161.359 473.066 161.664C472.871 161.961 472.773 162.293 472.773 162.66C472.773 163.223 472.984 163.691 473.406 164.066C473.836 164.441 474.461 164.629 475.281 164.629C476.094 164.629 476.816 164.453 477.449 164.102C478.082 163.742 478.547 163.254 478.844 162.637C479.07 162.16 479.184 161.457 479.184 160.527V159.754ZM491.277 166V153.555H493.164V155.301C493.555 154.691 494.074 154.203 494.723 153.836C495.371 153.461 496.109 153.273 496.938 153.273C497.859 153.273 498.613 153.465 499.199 153.848C499.793 154.23 500.211 154.766 500.453 155.453C501.438 154 502.719 153.273 504.297 153.273C505.531 153.273 506.48 153.617 507.145 154.305C507.809 154.984 508.141 156.035 508.141 157.457V166H506.043V158.16C506.043 157.316 505.973 156.711 505.832 156.344C505.699 155.969 505.453 155.668 505.094 155.441C504.734 155.215 504.312 155.102 503.828 155.102C502.953 155.102 502.227 155.395 501.648 155.98C501.07 156.559 500.781 157.488 500.781 158.77V166H498.672V157.914C498.672 156.977 498.5 156.273 498.156 155.805C497.812 155.336 497.25 155.102 496.469 155.102C495.875 155.102 495.324 155.258 494.816 155.57C494.316 155.883 493.953 156.34 493.727 156.941C493.5 157.543 493.387 158.41 493.387 159.543V166H491.277ZM510.484 159.777C510.484 157.473 511.125 155.766 512.406 154.656C513.477 153.734 514.781 153.273 516.32 153.273C518.031 153.273 519.43 153.836 520.516 154.961C521.602 156.078 522.145 157.625 522.145 159.602C522.145 161.203 521.902 162.465 521.418 163.387C520.941 164.301 520.242 165.012 519.32 165.52C518.406 166.027 517.406 166.281 516.32 166.281C514.578 166.281 513.168 165.723 512.09 164.605C511.02 163.488 510.484 161.879 510.484 159.777ZM512.652 159.777C512.652 161.371 513 162.566 513.695 163.363C514.391 164.152 515.266 164.547 516.32 164.547C517.367 164.547 518.238 164.148 518.934 163.352C519.629 162.555 519.977 161.34 519.977 159.707C519.977 158.168 519.625 157.004 518.922 156.215C518.227 155.418 517.359 155.02 516.32 155.02C515.266 155.02 514.391 155.414 513.695 156.203C513 156.992 512.652 158.184 512.652 159.777ZM532.703 166V164.43C531.914 165.664 530.754 166.281 529.223 166.281C528.23 166.281 527.316 166.008 526.48 165.461C525.652 164.914 525.008 164.152 524.547 163.176C524.094 162.191 523.867 161.062 523.867 159.789C523.867 158.547 524.074 157.422 524.488 156.414C524.902 155.398 525.523 154.621 526.352 154.082C527.18 153.543 528.105 153.273 529.129 153.273C529.879 153.273 530.547 153.434 531.133 153.754C531.719 154.066 532.195 154.477 532.562 154.984V148.82H534.66V166H532.703ZM526.035 159.789C526.035 161.383 526.371 162.574 527.043 163.363C527.715 164.152 528.508 164.547 529.422 164.547C530.344 164.547 531.125 164.172 531.766 163.422C532.414 162.664 532.738 161.512 532.738 159.965C532.738 158.262 532.41 157.012 531.754 156.215C531.098 155.418 530.289 155.02 529.328 155.02C528.391 155.02 527.605 155.402 526.973 156.168C526.348 156.934 526.035 158.141 526.035 159.789ZM546.508 161.992L548.688 162.262C548.344 163.535 547.707 164.523 546.777 165.227C545.848 165.93 544.66 166.281 543.215 166.281C541.395 166.281 539.949 165.723 538.879 164.605C537.816 163.48 537.285 161.906 537.285 159.883C537.285 157.789 537.824 156.164 538.902 155.008C539.98 153.852 541.379 153.273 543.098 153.273C544.762 153.273 546.121 153.84 547.176 154.973C548.23 156.105 548.758 157.699 548.758 159.754C548.758 159.879 548.754 160.066 548.746 160.316H539.465C539.543 161.684 539.93 162.73 540.625 163.457C541.32 164.184 542.188 164.547 543.227 164.547C544 164.547 544.66 164.344 545.207 163.938C545.754 163.531 546.188 162.883 546.508 161.992ZM539.582 158.582H546.531C546.438 157.535 546.172 156.75 545.734 156.227C545.062 155.414 544.191 155.008 543.121 155.008C542.152 155.008 541.336 155.332 540.672 155.98C540.016 156.629 539.652 157.496 539.582 158.582ZM551.301 166V148.82H553.41V166H551.301ZM571.492 161.441L573.566 161.711C573.34 163.141 572.758 164.262 571.82 165.074C570.891 165.879 569.746 166.281 568.387 166.281C566.684 166.281 565.312 165.727 564.273 164.617C563.242 163.5 562.727 161.902 562.727 159.824C562.727 158.48 562.949 157.305 563.395 156.297C563.84 155.289 564.516 154.535 565.422 154.035C566.336 153.527 567.328 153.273 568.398 153.273C569.75 153.273 570.855 153.617 571.715 154.305C572.574 154.984 573.125 155.953 573.367 157.211L571.316 157.527C571.121 156.691 570.773 156.062 570.273 155.641C569.781 155.219 569.184 155.008 568.48 155.008C567.418 155.008 566.555 155.391 565.891 156.156C565.227 156.914 564.895 158.117 564.895 159.766C564.895 161.438 565.215 162.652 565.855 163.41C566.496 164.168 567.332 164.547 568.363 164.547C569.191 164.547 569.883 164.293 570.438 163.785C570.992 163.277 571.344 162.496 571.492 161.441ZM583.492 164.465C582.711 165.129 581.957 165.598 581.23 165.871C580.512 166.145 579.738 166.281 578.91 166.281C577.543 166.281 576.492 165.949 575.758 165.285C575.023 164.613 574.656 163.758 574.656 162.719C574.656 162.109 574.793 161.555 575.066 161.055C575.348 160.547 575.711 160.141 576.156 159.836C576.609 159.531 577.117 159.301 577.68 159.145C578.094 159.035 578.719 158.93 579.555 158.828C581.258 158.625 582.512 158.383 583.316 158.102C583.324 157.812 583.328 157.629 583.328 157.551C583.328 156.691 583.129 156.086 582.73 155.734C582.191 155.258 581.391 155.02 580.328 155.02C579.336 155.02 578.602 155.195 578.125 155.547C577.656 155.891 577.309 156.504 577.082 157.387L575.02 157.105C575.207 156.223 575.516 155.512 575.945 154.973C576.375 154.426 576.996 154.008 577.809 153.719C578.621 153.422 579.562 153.273 580.633 153.273C581.695 153.273 582.559 153.398 583.223 153.648C583.887 153.898 584.375 154.215 584.688 154.598C585 154.973 585.219 155.449 585.344 156.027C585.414 156.387 585.449 157.035 585.449 157.973V160.785C585.449 162.746 585.492 163.988 585.578 164.512C585.672 165.027 585.852 165.523 586.117 166H583.914C583.695 165.562 583.555 165.051 583.492 164.465ZM583.316 159.754C582.551 160.066 581.402 160.332 579.871 160.551C579.004 160.676 578.391 160.816 578.031 160.973C577.672 161.129 577.395 161.359 577.199 161.664C577.004 161.961 576.906 162.293 576.906 162.66C576.906 163.223 577.117 163.691 577.539 164.066C577.969 164.441 578.594 164.629 579.414 164.629C580.227 164.629 580.949 164.453 581.582 164.102C582.215 163.742 582.68 163.254 582.977 162.637C583.203 162.16 583.316 161.457 583.316 160.527V159.754ZM588.73 166V153.555H590.629V155.324C591.543 153.957 592.863 153.273 594.59 153.273C595.34 153.273 596.027 153.41 596.652 153.684C597.285 153.949 597.758 154.301 598.07 154.738C598.383 155.176 598.602 155.695 598.727 156.297C598.805 156.688 598.844 157.371 598.844 158.348V166H596.734V158.43C596.734 157.57 596.652 156.93 596.488 156.508C596.324 156.078 596.031 155.738 595.609 155.488C595.195 155.23 594.707 155.102 594.145 155.102C593.246 155.102 592.469 155.387 591.812 155.957C591.164 156.527 590.84 157.609 590.84 159.203V166H588.73ZM610.715 166H608.758V148.82H610.867V154.949C611.758 153.832 612.895 153.273 614.277 153.273C615.043 153.273 615.766 153.43 616.445 153.742C617.133 154.047 617.695 154.48 618.133 155.043C618.578 155.598 618.926 156.27 619.176 157.059C619.426 157.848 619.551 158.691 619.551 159.59C619.551 161.723 619.023 163.371 617.969 164.535C616.914 165.699 615.648 166.281 614.172 166.281C612.703 166.281 611.551 165.668 610.715 164.441V166ZM610.691 159.684C610.691 161.176 610.895 162.254 611.301 162.918C611.965 164.004 612.863 164.547 613.996 164.547C614.918 164.547 615.715 164.148 616.387 163.352C617.059 162.547 617.395 161.352 617.395 159.766C617.395 158.141 617.07 156.941 616.422 156.168C615.781 155.395 615.004 155.008 614.09 155.008C613.168 155.008 612.371 155.41 611.699 156.215C611.027 157.012 610.691 158.168 610.691 159.684ZM630.648 161.992L632.828 162.262C632.484 163.535 631.848 164.523 630.918 165.227C629.988 165.93 628.801 166.281 627.355 166.281C625.535 166.281 624.09 165.723 623.02 164.605C621.957 163.48 621.426 161.906 621.426 159.883C621.426 157.789 621.965 156.164 623.043 155.008C624.121 153.852 625.52 153.273 627.238 153.273C628.902 153.273 630.262 153.84 631.316 154.973C632.371 156.105 632.898 157.699 632.898 159.754C632.898 159.879 632.895 160.066 632.887 160.316H623.605C623.684 161.684 624.07 162.73 624.766 163.457C625.461 164.184 626.328 164.547 627.367 164.547C628.141 164.547 628.801 164.344 629.348 163.938C629.895 163.531 630.328 162.883 630.648 161.992ZM623.723 158.582H630.672C630.578 157.535 630.312 156.75 629.875 156.227C629.203 155.414 628.332 155.008 627.262 155.008C626.293 155.008 625.477 155.332 624.812 155.98C624.156 156.629 623.793 157.496 623.723 158.582ZM650.289 164.465C649.508 165.129 648.754 165.598 648.027 165.871C647.309 166.145 646.535 166.281 645.707 166.281C644.34 166.281 643.289 165.949 642.555 165.285C641.82 164.613 641.453 163.758 641.453 162.719C641.453 162.109 641.59 161.555 641.863 161.055C642.145 160.547 642.508 160.141 642.953 159.836C643.406 159.531 643.914 159.301 644.477 159.145C644.891 159.035 645.516 158.93 646.352 158.828C648.055 158.625 649.309 158.383 650.113 158.102C650.121 157.812 650.125 157.629 650.125 157.551C650.125 156.691 649.926 156.086 649.527 155.734C648.988 155.258 648.188 155.02 647.125 155.02C646.133 155.02 645.398 155.195 644.922 155.547C644.453 155.891 644.105 156.504 643.879 157.387L641.816 157.105C642.004 156.223 642.312 155.512 642.742 154.973C643.172 154.426 643.793 154.008 644.605 153.719C645.418 153.422 646.359 153.273 647.43 153.273C648.492 153.273 649.355 153.398 650.02 153.648C650.684 153.898 651.172 154.215 651.484 154.598C651.797 154.973 652.016 155.449 652.141 156.027C652.211 156.387 652.246 157.035 652.246 157.973V160.785C652.246 162.746 652.289 163.988 652.375 164.512C652.469 165.027 652.648 165.523 652.914 166H650.711C650.492 165.562 650.352 165.051 650.289 164.465ZM650.113 159.754C649.348 160.066 648.199 160.332 646.668 160.551C645.801 160.676 645.188 160.816 644.828 160.973C644.469 161.129 644.191 161.359 643.996 161.664C643.801 161.961 643.703 162.293 643.703 162.66C643.703 163.223 643.914 163.691 644.336 164.066C644.766 164.441 645.391 164.629 646.211 164.629C647.023 164.629 647.746 164.453 648.379 164.102C649.012 163.742 649.477 163.254 649.773 162.637C650 162.16 650.113 161.457 650.113 160.527V159.754ZM663.648 161.441L665.723 161.711C665.496 163.141 664.914 164.262 663.977 165.074C663.047 165.879 661.902 166.281 660.543 166.281C658.84 166.281 657.469 165.727 656.43 164.617C655.398 163.5 654.883 161.902 654.883 159.824C654.883 158.48 655.105 157.305 655.551 156.297C655.996 155.289 656.672 154.535 657.578 154.035C658.492 153.527 659.484 153.273 660.555 153.273C661.906 153.273 663.012 153.617 663.871 154.305C664.73 154.984 665.281 155.953 665.523 157.211L663.473 157.527C663.277 156.691 662.93 156.062 662.43 155.641C661.938 155.219 661.34 155.008 660.637 155.008C659.574 155.008 658.711 155.391 658.047 156.156C657.383 156.914 657.051 158.117 657.051 159.766C657.051 161.438 657.371 162.652 658.012 163.41C658.652 164.168 659.488 164.547 660.52 164.547C661.348 164.547 662.039 164.293 662.594 163.785C663.148 163.277 663.5 162.496 663.648 161.441ZM672.133 164.113L672.438 165.977C671.844 166.102 671.312 166.164 670.844 166.164C670.078 166.164 669.484 166.043 669.062 165.801C668.641 165.559 668.344 165.242 668.172 164.852C668 164.453 667.914 163.621 667.914 162.355V155.195H666.367V153.555H667.914V150.473L670.012 149.207V153.555H672.133V155.195H670.012V162.473C670.012 163.074 670.047 163.461 670.117 163.633C670.195 163.805 670.316 163.941 670.48 164.043C670.652 164.145 670.895 164.195 671.207 164.195C671.441 164.195 671.75 164.168 672.133 164.113ZM682.363 166V164.172C681.395 165.578 680.078 166.281 678.414 166.281C677.68 166.281 676.992 166.141 676.352 165.859C675.719 165.578 675.246 165.227 674.934 164.805C674.629 164.375 674.414 163.852 674.289 163.234C674.203 162.82 674.16 162.164 674.16 161.266V153.555H676.27V160.457C676.27 161.559 676.312 162.301 676.398 162.684C676.531 163.238 676.812 163.676 677.242 163.996C677.672 164.309 678.203 164.465 678.836 164.465C679.469 164.465 680.062 164.305 680.617 163.984C681.172 163.656 681.562 163.215 681.789 162.66C682.023 162.098 682.141 161.285 682.141 160.223V153.555H684.25V166H682.363ZM695.688 164.465C694.906 165.129 694.152 165.598 693.426 165.871C692.707 166.145 691.934 166.281 691.105 166.281C689.738 166.281 688.688 165.949 687.953 165.285C687.219 164.613 686.852 163.758 686.852 162.719C686.852 162.109 686.988 161.555 687.262 161.055C687.543 160.547 687.906 160.141 688.352 159.836C688.805 159.531 689.312 159.301 689.875 159.145C690.289 159.035 690.914 158.93 691.75 158.828C693.453 158.625 694.707 158.383 695.512 158.102C695.52 157.812 695.523 157.629 695.523 157.551C695.523 156.691 695.324 156.086 694.926 155.734C694.387 155.258 693.586 155.02 692.523 155.02C691.531 155.02 690.797 155.195 690.32 155.547C689.852 155.891 689.504 156.504 689.277 157.387L687.215 157.105C687.402 156.223 687.711 155.512 688.141 154.973C688.57 154.426 689.191 154.008 690.004 153.719C690.816 153.422 691.758 153.273 692.828 153.273C693.891 153.273 694.754 153.398 695.418 153.648C696.082 153.898 696.57 154.215 696.883 154.598C697.195 154.973 697.414 155.449 697.539 156.027C697.609 156.387 697.645 157.035 697.645 157.973V160.785C697.645 162.746 697.688 163.988 697.773 164.512C697.867 165.027 698.047 165.523 698.312 166H696.109C695.891 165.562 695.75 165.051 695.688 164.465ZM695.512 159.754C694.746 160.066 693.598 160.332 692.066 160.551C691.199 160.676 690.586 160.816 690.227 160.973C689.867 161.129 689.59 161.359 689.395 161.664C689.199 161.961 689.102 162.293 689.102 162.66C689.102 163.223 689.312 163.691 689.734 164.066C690.164 164.441 690.789 164.629 691.609 164.629C692.422 164.629 693.145 164.453 693.777 164.102C694.41 163.742 694.875 163.254 695.172 162.637C695.398 162.16 695.512 161.457 695.512 160.527V159.754ZM700.879 166V148.82H702.988V166H700.879ZM706.223 166V148.82H708.332V166H706.223ZM711.52 170.793L711.285 168.812C711.746 168.938 712.148 169 712.492 169C712.961 169 713.336 168.922 713.617 168.766C713.898 168.609 714.129 168.391 714.309 168.109C714.441 167.898 714.656 167.375 714.953 166.539C714.992 166.422 715.055 166.25 715.141 166.023L710.418 153.555H712.691L715.281 160.762C715.617 161.676 715.918 162.637 716.184 163.645C716.426 162.676 716.715 161.73 717.051 160.809L719.711 153.555H721.82L717.086 166.211C716.578 167.578 716.184 168.52 715.902 169.035C715.527 169.73 715.098 170.238 714.613 170.559C714.129 170.887 713.551 171.051 712.879 171.051C712.473 171.051 712.02 170.965 711.52 170.793ZM738.414 161.441L740.488 161.711C740.262 163.141 739.68 164.262 738.742 165.074C737.812 165.879 736.668 166.281 735.309 166.281C733.605 166.281 732.234 165.727 731.195 164.617C730.164 163.5 729.648 161.902 729.648 159.824C729.648 158.48 729.871 157.305 730.316 156.297C730.762 155.289 731.438 154.535 732.344 154.035C733.258 153.527 734.25 153.273 735.32 153.273C736.672 153.273 737.777 153.617 738.637 154.305C739.496 154.984 740.047 155.953 740.289 157.211L738.238 157.527C738.043 156.691 737.695 156.062 737.195 155.641C736.703 155.219 736.105 155.008 735.402 155.008C734.34 155.008 733.477 155.391 732.812 156.156C732.148 156.914 731.816 158.117 731.816 159.766C731.816 161.438 732.137 162.652 732.777 163.41C733.418 164.168 734.254 164.547 735.285 164.547C736.113 164.547 736.805 164.293 737.359 163.785C737.914 163.277 738.266 162.496 738.414 161.441ZM742.27 166V153.555H744.168V155.441C744.652 154.559 745.098 153.977 745.504 153.695C745.918 153.414 746.371 153.273 746.863 153.273C747.574 153.273 748.297 153.5 749.031 153.953L748.305 155.91C747.789 155.605 747.273 155.453 746.758 155.453C746.297 155.453 745.883 155.594 745.516 155.875C745.148 156.148 744.887 156.531 744.73 157.023C744.496 157.773 744.379 158.594 744.379 159.484V166H742.27ZM758.805 161.992L760.984 162.262C760.641 163.535 760.004 164.523 759.074 165.227C758.145 165.93 756.957 166.281 755.512 166.281C753.691 166.281 752.246 165.723 751.176 164.605C750.113 163.48 749.582 161.906 749.582 159.883C749.582 157.789 750.121 156.164 751.199 155.008C752.277 153.852 753.676 153.273 755.395 153.273C757.059 153.273 758.418 153.84 759.473 154.973C760.527 156.105 761.055 157.699 761.055 159.754C761.055 159.879 761.051 160.066 761.043 160.316H751.762C751.84 161.684 752.227 162.73 752.922 163.457C753.617 164.184 754.484 164.547 755.523 164.547C756.297 164.547 756.957 164.344 757.504 163.938C758.051 163.531 758.484 162.883 758.805 161.992ZM751.879 158.582H758.828C758.734 157.535 758.469 156.75 758.031 156.227C757.359 155.414 756.488 155.008 755.418 155.008C754.449 155.008 753.633 155.332 752.969 155.98C752.312 156.629 751.949 157.496 751.879 158.582ZM771.766 164.465C770.984 165.129 770.23 165.598 769.504 165.871C768.785 166.145 768.012 166.281 767.184 166.281C765.816 166.281 764.766 165.949 764.031 165.285C763.297 164.613 762.93 163.758 762.93 162.719C762.93 162.109 763.066 161.555 763.34 161.055C763.621 160.547 763.984 160.141 764.43 159.836C764.883 159.531 765.391 159.301 765.953 159.145C766.367 159.035 766.992 158.93 767.828 158.828C769.531 158.625 770.785 158.383 771.59 158.102C771.598 157.812 771.602 157.629 771.602 157.551C771.602 156.691 771.402 156.086 771.004 155.734C770.465 155.258 769.664 155.02 768.602 155.02C767.609 155.02 766.875 155.195 766.398 155.547C765.93 155.891 765.582 156.504 765.355 157.387L763.293 157.105C763.48 156.223 763.789 155.512 764.219 154.973C764.648 154.426 765.27 154.008 766.082 153.719C766.895 153.422 767.836 153.273 768.906 153.273C769.969 153.273 770.832 153.398 771.496 153.648C772.16 153.898 772.648 154.215 772.961 154.598C773.273 154.973 773.492 155.449 773.617 156.027C773.688 156.387 773.723 157.035 773.723 157.973V160.785C773.723 162.746 773.766 163.988 773.852 164.512C773.945 165.027 774.125 165.523 774.391 166H772.188C771.969 165.562 771.828 165.051 771.766 164.465ZM771.59 159.754C770.824 160.066 769.676 160.332 768.145 160.551C767.277 160.676 766.664 160.816 766.305 160.973C765.945 161.129 765.668 161.359 765.473 161.664C765.277 161.961 765.18 162.293 765.18 162.66C765.18 163.223 765.391 163.691 765.812 164.066C766.242 164.441 766.867 164.629 767.688 164.629C768.5 164.629 769.223 164.453 769.855 164.102C770.488 163.742 770.953 163.254 771.25 162.637C771.477 162.16 771.59 161.457 771.59 160.527V159.754ZM781.609 164.113L781.914 165.977C781.32 166.102 780.789 166.164 780.32 166.164C779.555 166.164 778.961 166.043 778.539 165.801C778.117 165.559 777.82 165.242 777.648 164.852C777.477 164.453 777.391 163.621 777.391 162.355V155.195H775.844V153.555H777.391V150.473L779.488 149.207V153.555H781.609V155.195H779.488V162.473C779.488 163.074 779.523 163.461 779.594 163.633C779.672 163.805 779.793 163.941 779.957 164.043C780.129 164.145 780.371 164.195 780.684 164.195C780.918 164.195 781.227 164.168 781.609 164.113ZM792.203 161.992L794.383 162.262C794.039 163.535 793.402 164.523 792.473 165.227C791.543 165.93 790.355 166.281 788.91 166.281C787.09 166.281 785.645 165.723 784.574 164.605C783.512 163.48 782.98 161.906 782.98 159.883C782.98 157.789 783.52 156.164 784.598 155.008C785.676 153.852 787.074 153.273 788.793 153.273C790.457 153.273 791.816 153.84 792.871 154.973C793.926 156.105 794.453 157.699 794.453 159.754C794.453 159.879 794.449 160.066 794.441 160.316H785.16C785.238 161.684 785.625 162.73 786.32 163.457C787.016 164.184 787.883 164.547 788.922 164.547C789.695 164.547 790.355 164.344 790.902 163.938C791.449 163.531 791.883 162.883 792.203 161.992ZM785.277 158.582H792.227C792.133 157.535 791.867 156.75 791.43 156.227C790.758 155.414 789.887 155.008 788.816 155.008C787.848 155.008 787.031 155.332 786.367 155.98C785.711 156.629 785.348 157.496 785.277 158.582ZM805.117 166V164.43C804.328 165.664 803.168 166.281 801.637 166.281C800.645 166.281 799.73 166.008 798.895 165.461C798.066 164.914 797.422 164.152 796.961 163.176C796.508 162.191 796.281 161.062 796.281 159.789C796.281 158.547 796.488 157.422 796.902 156.414C797.316 155.398 797.938 154.621 798.766 154.082C799.594 153.543 800.52 153.273 801.543 153.273C802.293 153.273 802.961 153.434 803.547 153.754C804.133 154.066 804.609 154.477 804.977 154.984V148.82H807.074V166H805.117ZM798.449 159.789C798.449 161.383 798.785 162.574 799.457 163.363C800.129 164.152 800.922 164.547 801.836 164.547C802.758 164.547 803.539 164.172 804.18 163.422C804.828 162.664 805.152 161.512 805.152 159.965C805.152 158.262 804.824 157.012 804.168 156.215C803.512 155.418 802.703 155.02 801.742 155.02C800.805 155.02 800.02 155.402 799.387 156.168C798.762 156.934 798.449 158.141 798.449 159.789ZM811 166V163.598H813.402V166H811Z" fill="black"/>
</g>
</svg>
